<svg version="1.1" id="Ebene_1" xmlns="http://www.w3.org/2000/svg" x="0" y="0" viewBox="0 0 200 86" xml:space="preserve"><path d="M85.8 5.3c-3.3-1.9-7-2.6-10.9-2.6-11.6 0-17.3 8.9-17.3 19.8 0 20.3 21.6 23.4 21.6 38.7 0 5.7-2.7 10.8-9 10.8-4 0-7.1-1.7-10.1-4v10.3c3.2 2.6 7.3 3.7 11.3 3.7 11.4 0 18.1-9.3 18.1-20.2 0-10.5-4-15.6-11-22.6l-7.8-8.5c-2.1-2.7-2.9-5-2.9-8.4 0-5.3 3.5-9.9 9.1-9.9 3.5 0 6 1.3 8.7 3.3l.2-10.4zM36.6 43.7c0 13.1.7 29.1-16.2 28.6V12.5c17.3-1.1 16.2 19.3 16.2 31.2M10.1 3.8V81h7.1c18.3 0 30.2-1.6 30.2-37.3 0-39.1-13.7-40-25.8-40l-11.5.1zm141.2 75.9c-.4.2-.2 1.6 0 1.7 2.6 0 7.6-.3 10.2-.3 4.6 0 9.2.3 11.7.3.2-.2.3-1.5.2-1.7-2.9-.2-3.7-.5-5.2-.8-2.2-.5-3.2-1.9-3.4-4.2-.4-6.1-.1-22-.2-32.6 0-.2.4-1 .5-1 1.6-.1 8.5.1 10.5.1.1-1 .6-3.5.9-4.6-1 .1-5.3.3-11.4.3-.2 0-.5-.6-.5-.7v-2.1c.1-9 .3-21.3 5-25.7 1.6-1.5 3.4-2.2 5.4-2.2 4.5 0 8.3 3.2 10.1 4.8.2.1.6 0 .7-.1.8-.6 3.1-4.1 3.4-5.1v-.7c-.8-2-4.2-4.2-8.3-4.2-2.3 0-6.7 1.7-10.2 4.3-9.9 7.2-12.4 16.3-12.4 31.2 0 .2-.2.6-.3.7-.8.5-3.4 1.4-5.2 1.6-.4.5-.8 1.6-.8 2.2l5.9.2c.2 0 .5.7.5.9-.1 14.1-.2 27.3-.3 32.6 0 2.6-.6 3.8-2.6 4.4-1 .2-2.4.5-4.2.7M140.8 1.1c-1 0-3.1.8-3.2 1.1-3.3 9.1-25.1 66-33.8 84.5 0 .1.2.3.4.3.9-.2 2.9-1.6 3.1-2 5.5-10.1 32.8-80.7 33.7-83.6l-.2-.3z"/></svg>